# Blender v2.77 (sub 0) OBJ File: 'RoomOctaTPArea.blend'
# www.blender.org
mtllib RoomOctaTPArea.mtl
o TPArea_Cylinder.001
v 0.000000 0.260000 0.000000
v -0.000001 0.260000 16.290167
v 0.000000 0.260000 -16.272181
v -16.263165 0.260000 -0.000000
v -11.952271 0.260000 11.979270
v -11.957031 0.260000 -11.966044
v 16.260538 0.260000 0.000001
v 11.950339 0.260000 11.979968
v 11.955099 0.260000 -11.966742
v -0.000001 0.210000 16.290167
v 0.000000 0.210000 -16.272181
v -16.263165 0.210000 -0.000000
v -11.952271 0.210000 11.979270
v -11.957031 0.210000 -11.966044
v 16.260538 0.210000 0.000001
v 11.950339 0.210000 11.979968
v 11.955099 0.210000 -11.966742
v -0.000812 0.160000 0.005555
v -0.000812 0.160000 0.005555
v -0.000812 0.160000 0.005555
v -0.000812 0.160000 0.005555
v -0.000812 0.160000 0.005555
v -0.000812 0.160000 0.005555
v -0.000812 0.160000 0.005555
v -0.000812 0.160000 0.005555
vn 0.0000 1.0000 0.0000
vn -0.9409 0.0000 -0.3386
vn -0.3393 0.0000 0.9407
vn 0.9410 0.0000 0.3385
vn 0.3393 0.0000 0.9407
vn -0.9409 0.0000 0.3386
vn -0.3388 0.0000 -0.9408
vn 0.3388 0.0000 -0.9408
vn 0.9410 0.0000 -0.3385
vn 0.0031 -1.0000 0.0011
vn 0.0011 -1.0000 0.0031
vn -0.0031 -1.0000 -0.0011
vn 0.0011 -1.0000 -0.0031
vn 0.0031 -1.0000 -0.0011
vn -0.0031 -1.0000 0.0011
vn -0.0011 -1.0000 -0.0031
vn -0.0011 -1.0000 0.0031
usemtl Material
s off
f 1//1 3//1 6//1 4//1
f 1//1 4//1 5//1 2//1
f 1//1 7//1 9//1 3//1
f 1//1 2//1 8//1 7//1
f 4//2 6//2 14//2 12//2
f 2//3 5//3 13//3 10//3
f 7//4 8//4 16//4 15//4
f 8//5 2//5 10//5 16//5
f 5//6 4//6 12//6 13//6
f 6//7 3//7 11//7 14//7
f 3//8 9//8 17//8 11//8
f 9//9 7//9 15//9 17//9
f 15//10 16//10 24//10 23//10
f 16//11 10//11 18//11 24//11
f 12//12 14//12 22//12 20//12
f 11//13 17//13 25//13 19//13
f 17//14 15//14 23//14 25//14
f 13//15 12//15 20//15 21//15
f 14//16 11//16 19//16 22//16
f 10//17 13//17 21//17 18//17
